<svg width="1086" height="211" viewBox="0 0 1086 211" fill="none" xmlns="http://www.w3.org/2000/svg">
<g clip-path="url(#clip0_1145_1354)">
<g opacity="0.3">
<path fill-rule="evenodd" clip-rule="evenodd" d="M51.6602 61.055L103.321 31.2654V90.8445L51.6602 61.055ZM53.5456 61.055L102.416 89.1854V32.8491L53.5456 61.055Z" fill="#14ABFF"/>
<path fill-rule="evenodd" clip-rule="evenodd" d="M103.368 31.0391L155.029 1.02332V61.055L103.368 31.0391ZM105.254 31.0391L154.124 59.3958V2.60707L105.254 31.0391Z" fill="#14ABFF"/>
<path fill-rule="evenodd" clip-rule="evenodd" d="M206.264 150.801L258.905 120.559V181.043L206.264 150.801ZM208.15 150.801L258 179.459V122.218L208.15 150.801ZM103.396 90.8446L155.056 61.055V120.634C155.056 120.559 103.396 90.8446 103.396 90.8446ZM105.206 90.8446L154.076 118.975V62.6387L105.206 90.8446ZM51.6602 120.86L103.321 90.8446V150.876L51.6602 120.86ZM53.5456 120.86L102.416 149.217V92.4283L53.5456 120.86Z" fill="#14ABFF"/>
<path fill-rule="evenodd" clip-rule="evenodd" d="M0 91.0708L103.396 31.2654V150.801L0 91.0708ZM1.88542 91.0708L102.491 149.217V32.8491L1.88542 91.0708Z" fill="#14ABFF"/>
<path fill-rule="evenodd" clip-rule="evenodd" d="M155.05 60.8288L257.918 1.02338V120.559L155.05 60.8288ZM156.935 60.8288L257.089 118.975V2.60713L156.935 60.8288Z" fill="#14ABFF"/>
<path fill-rule="evenodd" clip-rule="evenodd" d="M103.849 150.575L206.264 90.7691V210.305L103.849 150.575ZM105.659 150.575L205.284 208.721V92.4283L105.659 150.575ZM258.905 120.559L362.226 60.6025V180.666L258.905 120.559ZM260.715 120.559L361.321 179.007V62.1862L260.715 120.559Z" fill="#14ABFF"/>
<path fill-rule="evenodd" clip-rule="evenodd" d="M413.963 61.055L465.623 31.2654V90.8446L413.963 61.055ZM415.773 61.055L464.643 89.1854V32.8492L415.773 61.055Z" fill="#14ABFF"/>
<path fill-rule="evenodd" clip-rule="evenodd" d="M465.619 31.0392L517.28 1.02338V61.055L465.619 31.0392ZM467.505 31.0392L516.375 59.3959V2.60713L467.505 31.0392Z" fill="#14ABFF"/>
<path fill-rule="evenodd" clip-rule="evenodd" d="M568.492 150.801L621.132 120.559V181.043L568.492 150.801ZM570.377 150.801L620.227 179.459V122.218L570.377 150.801ZM465.623 90.8446L517.284 61.0551V120.634L465.623 90.8446ZM467.509 90.8446L516.379 118.975V62.6388L467.509 90.8446ZM413.963 120.86L465.623 90.8446V150.876L413.963 120.86ZM415.773 120.86L464.643 149.217V92.4284L415.773 120.86Z" fill="#14ABFF"/>
<path fill-rule="evenodd" clip-rule="evenodd" d="M362.228 91.0709L465.624 31.2654V150.801L362.228 91.0709ZM364.113 91.0709L464.719 149.217V32.8492L364.113 91.0709Z" fill="#14ABFF"/>
<path fill-rule="evenodd" clip-rule="evenodd" d="M517.303 60.8288L620.171 1.02338V120.559L517.303 60.8288ZM519.188 60.8288L619.341 118.975V2.60713L519.188 60.8288Z" fill="#14ABFF"/>
<path fill-rule="evenodd" clip-rule="evenodd" d="M466.076 150.575L568.492 90.7692V210.305L466.076 150.575ZM467.962 150.575L567.587 208.721V92.4284L467.962 150.575ZM621.133 120.559L724.529 60.6025V180.666L621.133 120.559ZM623.018 120.559L723.549 179.007V62.1863L623.018 120.559Z" fill="#14ABFF"/>
<path fill-rule="evenodd" clip-rule="evenodd" d="M775.433 61.055L827.093 31.2654V90.8446L775.433 61.055ZM777.318 61.055L826.188 89.1854V32.8492L777.318 61.055Z" fill="#14ABFF"/>
<path fill-rule="evenodd" clip-rule="evenodd" d="M827.115 31.0392L878.776 1.02338V61.055L827.115 31.0392ZM829.001 31.0392L877.871 59.3959V2.60713L829.001 31.0392Z" fill="#14ABFF"/>
<path fill-rule="evenodd" clip-rule="evenodd" d="M930.037 150.801L982.678 120.559V181.043L930.037 150.801ZM931.847 150.801L981.697 179.459V122.218L931.847 150.801ZM827.093 90.8446L878.753 61.0551V120.634C878.829 120.559 827.093 90.8446 827.093 90.8446ZM828.978 90.8446L877.848 118.975V62.6388L828.978 90.8446ZM775.433 120.86L827.093 90.8446V150.876L775.433 120.86ZM777.318 120.86L826.188 149.217V92.4284L777.318 120.86Z" fill="#14ABFF"/>
<path fill-rule="evenodd" clip-rule="evenodd" d="M723.772 91.0709L827.169 31.2654V150.801L723.772 91.0709ZM725.582 91.0709L826.188 149.217V32.8492L725.582 91.0709Z" fill="#14ABFF"/>
<path fill-rule="evenodd" clip-rule="evenodd" d="M878.8 60.8288L981.668 1.02338V120.559L878.8 60.8288ZM880.685 60.8288L980.839 118.975V2.60713L880.685 60.8288Z" fill="#14ABFF"/>
<path fill-rule="evenodd" clip-rule="evenodd" d="M827.546 150.575L929.962 90.7692V210.305L827.546 150.575ZM829.431 150.575L929.057 208.721V92.4284L829.431 150.575ZM982.603 120.559L1086 60.6025V180.666L982.603 120.559ZM984.488 120.559L1085.09 178.931V62.1863L984.488 120.559Z" fill="#14ABFF"/>
</g>
</g>
<defs>
<clipPath id="clip0_1145_1354">
<rect width="1086" height="210.262" fill="white" transform="translate(0 0.269165)"/>
</clipPath>
</defs>
</svg>
